<mxfile host="app.diagrams.net" modified="2021-02-09T12:27:43.245Z" agent="5.0 (X11; Linux x86_64) AppleWebKit/537.36 (KHTML, like Gecko) Chrome/88.0.4324.96 Safari/537.36" etag="DBeKzYw63KAFoWy8ruqj" version="14.2.9" type="github">
  <diagram id="INKjwyb-vYpEfY8y4Dvn" name="Page-1">
    <mxGraphModel dx="1520" dy="858" grid="1" gridSize="10" guides="1" tooltips="1" connect="1" arrows="1" fold="1" page="1" pageScale="1" pageWidth="850" pageHeight="1100" math="0" shadow="0">
      <root>
        <mxCell id="0" />
        <mxCell id="1" parent="0" />
        <mxCell id="BVUqEI3EaJjl4weDqBMo-31" value="" style="shape=hexagon;perimeter=hexagonPerimeter2;whiteSpace=wrap;html=1;fixedSize=1;strokeWidth=2;fillColor=#b0e3e6;strokeColor=#0e8088;" parent="1" vertex="1">
          <mxGeometry x="300" y="430" width="200" height="80" as="geometry" />
        </mxCell>
        <mxCell id="BVUqEI3EaJjl4weDqBMo-24" value="" style="ellipse;whiteSpace=wrap;html=1;strokeColor=#3700CC;fontColor=#ffffff;fillColor=none;strokeWidth=2;" parent="1" vertex="1">
          <mxGeometry x="320" y="240" width="160" height="110" as="geometry" />
        </mxCell>
        <mxCell id="BVUqEI3EaJjl4weDqBMo-1" value="" style="shape=card;whiteSpace=wrap;html=1;fillColor=#ffe6cc;strokeColor=#d79b00;" parent="1" vertex="1">
          <mxGeometry x="120" y="140" width="80" height="100" as="geometry" />
        </mxCell>
        <mxCell id="BVUqEI3EaJjl4weDqBMo-2" value="" style="shape=card;whiteSpace=wrap;html=1;fillColor=#fff2cc;strokeColor=#d6b656;" parent="1" vertex="1">
          <mxGeometry x="130" y="160" width="80" height="100" as="geometry" />
        </mxCell>
        <mxCell id="BVUqEI3EaJjl4weDqBMo-3" value="" style="shape=card;whiteSpace=wrap;html=1;fillColor=#d5e8d4;strokeColor=#82b366;" parent="1" vertex="1">
          <mxGeometry x="140" y="180" width="80" height="100" as="geometry" />
        </mxCell>
        <mxCell id="BVUqEI3EaJjl4weDqBMo-4" value="" style="shape=card;whiteSpace=wrap;html=1;fillColor=#dae8fc;strokeColor=#6c8ebf;" parent="1" vertex="1">
          <mxGeometry x="150" y="200" width="80" height="100" as="geometry" />
        </mxCell>
        <mxCell id="BVUqEI3EaJjl4weDqBMo-5" value="" style="shape=card;whiteSpace=wrap;html=1;fillColor=#f8cecc;strokeColor=#b85450;" parent="1" vertex="1">
          <mxGeometry x="160" y="220" width="80" height="100" as="geometry" />
        </mxCell>
        <mxCell id="BVUqEI3EaJjl4weDqBMo-11" value="" style="shape=note;whiteSpace=wrap;html=1;backgroundOutline=1;darkOpacity=0.05;" parent="1" vertex="1">
          <mxGeometry x="370" y="250" width="60" height="60" as="geometry" />
        </mxCell>
        <mxCell id="BVUqEI3EaJjl4weDqBMo-17" value="" style="shape=note;whiteSpace=wrap;html=1;backgroundOutline=1;darkOpacity=0.05;" parent="1" vertex="1">
          <mxGeometry x="360" y="250" width="60" height="60" as="geometry" />
        </mxCell>
        <mxCell id="BVUqEI3EaJjl4weDqBMo-20" value="" style="shape=cylinder3;whiteSpace=wrap;html=1;boundedLbl=1;backgroundOutline=1;size=15;fillColor=#e1d5e7;strokeColor=#9673a6;" parent="1" vertex="1">
          <mxGeometry x="520" y="180" width="60" height="80" as="geometry" />
        </mxCell>
        <mxCell id="BVUqEI3EaJjl4weDqBMo-21" value="" style="endArrow=classic;html=1;strokeWidth=4;" parent="1" edge="1">
          <mxGeometry width="50" height="50" relative="1" as="geometry">
            <mxPoint x="280" y="230" as="sourcePoint" />
            <mxPoint x="500" y="230" as="targetPoint" />
          </mxGeometry>
        </mxCell>
        <mxCell id="BVUqEI3EaJjl4weDqBMo-22" value="&lt;font face=&quot;Courier New&quot; style=&quot;font-size: 21px&quot;&gt;&lt;b&gt;make&lt;/b&gt;&lt;/font&gt;" style="text;html=1;strokeColor=none;fillColor=none;align=center;verticalAlign=middle;whiteSpace=wrap;rounded=0;" parent="1" vertex="1">
          <mxGeometry x="350" y="200" width="80" height="20" as="geometry" />
        </mxCell>
        <mxCell id="BVUqEI3EaJjl4weDqBMo-23" value="&lt;font face=&quot;Courier New&quot; style=&quot;font-size: 21px&quot;&gt;&lt;b&gt;Makefile&lt;/b&gt;&lt;/font&gt;" style="text;html=1;strokeColor=none;fillColor=none;align=center;verticalAlign=middle;whiteSpace=wrap;rounded=0;" parent="1" vertex="1">
          <mxGeometry x="340" y="320" width="120" height="10" as="geometry" />
        </mxCell>
        <mxCell id="BVUqEI3EaJjl4weDqBMo-27" value="&lt;font face=&quot;Courier New&quot; style=&quot;font-size: 21px&quot;&gt;&lt;b&gt;CMakeLists.txt&lt;/b&gt;&lt;/font&gt;" style="text;html=1;strokeColor=none;fillColor=none;align=center;verticalAlign=middle;whiteSpace=wrap;rounded=0;" parent="1" vertex="1">
          <mxGeometry x="340" y="465" width="120" height="10" as="geometry" />
        </mxCell>
        <mxCell id="BVUqEI3EaJjl4weDqBMo-33" value="" style="endArrow=classic;html=1;strokeWidth=2;entryX=0.5;entryY=1;entryDx=0;entryDy=0;" parent="1" target="BVUqEI3EaJjl4weDqBMo-24" edge="1">
          <mxGeometry width="50" height="50" relative="1" as="geometry">
            <mxPoint x="400" y="430" as="sourcePoint" />
            <mxPoint x="450" y="380" as="targetPoint" />
          </mxGeometry>
        </mxCell>
        <mxCell id="BVUqEI3EaJjl4weDqBMo-34" value="&lt;b style=&quot;font-family: &amp;#34;courier new&amp;#34; ; font-size: 21px ; background-color: rgb(248 , 249 , 250)&quot;&gt;cmake&lt;/b&gt;" style="edgeLabel;html=1;align=center;verticalAlign=middle;resizable=0;points=[];" parent="BVUqEI3EaJjl4weDqBMo-33" vertex="1" connectable="0">
          <mxGeometry x="0.425" y="-1" relative="1" as="geometry">
            <mxPoint x="-1" y="17" as="offset" />
          </mxGeometry>
        </mxCell>
        <mxCell id="tW9lE9jyUCI_iE4Is0C6-1" value="&lt;font face=&quot;Courier New&quot; size=&quot;1&quot;&gt;&lt;b style=&quot;font-size: 16px&quot;&gt;libexample.so&lt;/b&gt;&lt;/font&gt;" style="text;html=1;strokeColor=none;fillColor=none;align=center;verticalAlign=middle;whiteSpace=wrap;rounded=0;" vertex="1" parent="1">
          <mxGeometry x="482.5" y="160" width="135" height="20" as="geometry" />
        </mxCell>
        <mxCell id="tW9lE9jyUCI_iE4Is0C6-2" value="&lt;font face=&quot;Courier New&quot; size=&quot;1&quot;&gt;&lt;b style=&quot;font-size: 16px&quot;&gt;b.f90&lt;/b&gt;&lt;/font&gt;" style="text;html=1;strokeColor=none;fillColor=none;align=center;verticalAlign=middle;whiteSpace=wrap;rounded=0;" vertex="1" parent="1">
          <mxGeometry x="175" y="200" width="55" height="20" as="geometry" />
        </mxCell>
        <mxCell id="tW9lE9jyUCI_iE4Is0C6-3" value="&lt;font face=&quot;Courier New&quot; size=&quot;1&quot;&gt;&lt;b style=&quot;font-size: 16px&quot;&gt;a.cpp&lt;/b&gt;&lt;/font&gt;" style="text;html=1;strokeColor=none;fillColor=none;align=center;verticalAlign=middle;whiteSpace=wrap;rounded=0;" vertex="1" parent="1">
          <mxGeometry x="185" y="220" width="55" height="20" as="geometry" />
        </mxCell>
        <mxCell id="tW9lE9jyUCI_iE4Is0C6-5" value="&lt;font face=&quot;Courier New&quot; size=&quot;1&quot;&gt;&lt;b style=&quot;font-size: 16px&quot;&gt;x.f90&lt;/b&gt;&lt;/font&gt;" style="text;html=1;strokeColor=none;fillColor=none;align=center;verticalAlign=middle;whiteSpace=wrap;rounded=0;" vertex="1" parent="1">
          <mxGeometry x="165" y="180" width="55" height="20" as="geometry" />
        </mxCell>
        <mxCell id="tW9lE9jyUCI_iE4Is0C6-6" value="&lt;font face=&quot;Courier New&quot; size=&quot;1&quot;&gt;&lt;b style=&quot;font-size: 16px&quot;&gt;y.c&lt;/b&gt;&lt;/font&gt;" style="text;html=1;strokeColor=none;fillColor=none;align=center;verticalAlign=middle;whiteSpace=wrap;rounded=0;" vertex="1" parent="1">
          <mxGeometry x="155" y="160" width="55" height="20" as="geometry" />
        </mxCell>
        <mxCell id="tW9lE9jyUCI_iE4Is0C6-7" value="&lt;font face=&quot;Courier New&quot; size=&quot;1&quot;&gt;&lt;b style=&quot;font-size: 16px&quot;&gt;z.cpp&lt;/b&gt;&lt;/font&gt;" style="text;html=1;strokeColor=none;fillColor=none;align=center;verticalAlign=middle;whiteSpace=wrap;rounded=0;" vertex="1" parent="1">
          <mxGeometry x="145" y="140" width="55" height="20" as="geometry" />
        </mxCell>
      </root>
    </mxGraphModel>
  </diagram>
</mxfile>
